{"title":"Paddington.2014.720p.BRRip.XviD.AC3-RARBG","uid":11770097,"size":3182264645,"categoryP":"video","categoryS":"hd___movies","magnet":"?xt=urn:btih:3cc2c5c6f9427962a8bc10b7821ffb898499a5d6&amp;dn=Paddington.2014.720p.BRRip.XviD.AC3-RARBG&amp;tr=udp%3A%2F%2Ftracker.openbittorrent.com%3A80&amp;tr=udp%3A%2F%2Fopen.demonii.com%3A1337&amp;tr=udp%3A%2F%2Ftracker.coppersurfer.tk%3A6969&amp;tr=udp%3A%2F%2Fexodus.desync.com%3A6969","seeders":2,"leechers":0,"uploader":"vickey1992","files":6,"time":1427034919,"description":"Video\nID : 0\nFormat : MPEG-4 Visual\nFormat profile : Simple@L5\nFormat settings, BVOP : No\nFormat settings, QPel : No\nFormat settings, GMC : No warppoints\nFormat settings, Matrix : Default (H.263)\nCodec ID : XVID\nCodec ID/Hint : XviD\nDuration : 1h 35mn\nBit rate : 3 792 Kbps\nWidth : 1 280 pixels\nHeight : 536 pixels\nDisplay aspect ratio : 2.40:1\nFrame rate : 23.976 fps\nColor space : YUV\nChroma subsampling : 4:2:0\nBit depth : 8 bits\nScan type : Progressive\nCompression mode : Lossy\nBits/(Pixel*Frame) : 0.231\nStream size : 2.52 GiB (85%)\nWriting library : Lavc56.19.100\n\nAudio\nID : 1\nFormat : AC-3\nFormat/Info : Audio Coding 3\nMode extension : CM (complete main)\nFormat settings, Endianness : Big\nCodec ID : 2000\nDuration : 1h 35mn\nBit rate mode : Constant\nBit rate : 640 Kbps\nChannel(s) : 6 channels\nChannel positions : Front: L C R, Side: L R, LFE\nSampling rate : 48.0 KHz\nBit depth : 16 bits\nCompression mode : Lossy\nStream size : 436 MiB (14%)\nAlignment : Aligned on interleaves\nInterleave, duration : 42 ms (1.00 video frame)\nInterleave, preload duration : 512 ms","torrent":{"xt":"urn:btih:3cc2c5c6f9427962a8bc10b7821ffb898499a5d6","amp;dn":"Paddington.2014.720p.BRRip.XviD.AC3-RARBG","amp;tr":["udp%3A%2F%2Ftracker.openbittorrent.com%3A80","udp%3A%2F%2Fopen.demonii.com%3A1337","udp%3A%2F%2Ftracker.coppersurfer.tk%3A6969","udp%3A%2F%2Fexodus.desync.com%3A6969"],"infoHash":"3cc2c5c6f9427962a8bc10b7821ffb898499a5d6","infoHashBuffer":{"type":"Buffer","data":[60,194,197,198,249,66,121,98,168,188,16,183,130,31,251,137,132,153,165,214]},"announce":[],"urlList":[]}}